<mxfile host="app.diagrams.net" modified="2023-08-05T16:13:00.642Z" agent="Mozilla/5.0 (Windows NT 10.0; Win64; x64) AppleWebKit/537.36 (KHTML, like Gecko) Chrome/115.0.0.0 Safari/537.36" etag="kworYKdKPaz36oKWDVNd" version="21.6.6" type="google">
  <diagram name="Page-1" id="LlbSjiT5YF50K2WKO_uz">
    <mxGraphModel dx="2337" dy="1850" grid="1" gridSize="10" guides="1" tooltips="1" connect="1" arrows="1" fold="1" page="1" pageScale="1" pageWidth="850" pageHeight="1100" math="0" shadow="0">
      <root>
        <mxCell id="0" />
        <mxCell id="1" parent="0" />
        <mxCell id="IOINTAL6Y3XgF2sGTh_A-7" value="" style="rounded=0;whiteSpace=wrap;html=1;fillColor=#D1E1E3;strokeColor=#23445d;" vertex="1" parent="1">
          <mxGeometry x="-90" y="-90" width="1560" height="730" as="geometry" />
        </mxCell>
        <mxCell id="IOINTAL6Y3XgF2sGTh_A-23" style="edgeStyle=orthogonalEdgeStyle;shape=connector;rounded=1;orthogonalLoop=1;jettySize=auto;html=1;exitX=1;exitY=0.5;exitDx=0;exitDy=0;exitPerimeter=0;labelBackgroundColor=default;strokeColor=default;fontFamily=Helvetica;fontSize=11;fontColor=default;endArrow=classic;" edge="1" parent="1" source="IOINTAL6Y3XgF2sGTh_A-1" target="IOINTAL6Y3XgF2sGTh_A-10">
          <mxGeometry relative="1" as="geometry" />
        </mxCell>
        <mxCell id="IOINTAL6Y3XgF2sGTh_A-29" style="edgeStyle=orthogonalEdgeStyle;shape=connector;rounded=1;orthogonalLoop=1;jettySize=auto;html=1;exitX=0.75;exitY=1;exitDx=0;exitDy=0;exitPerimeter=0;entryX=0;entryY=0.5;entryDx=0;entryDy=0;entryPerimeter=0;labelBackgroundColor=default;strokeColor=default;fontFamily=Helvetica;fontSize=11;fontColor=default;endArrow=classic;" edge="1" parent="1" source="IOINTAL6Y3XgF2sGTh_A-1" target="IOINTAL6Y3XgF2sGTh_A-11">
          <mxGeometry relative="1" as="geometry" />
        </mxCell>
        <mxCell id="IOINTAL6Y3XgF2sGTh_A-32" style="edgeStyle=orthogonalEdgeStyle;shape=connector;rounded=1;orthogonalLoop=1;jettySize=auto;html=1;exitX=1;exitY=0.75;exitDx=0;exitDy=0;exitPerimeter=0;labelBackgroundColor=default;strokeColor=default;fontFamily=Helvetica;fontSize=11;fontColor=default;endArrow=classic;" edge="1" parent="1" source="IOINTAL6Y3XgF2sGTh_A-1" target="IOINTAL6Y3XgF2sGTh_A-5">
          <mxGeometry relative="1" as="geometry" />
        </mxCell>
        <mxCell id="IOINTAL6Y3XgF2sGTh_A-1" value="5410-project-trivia-questions" style="sketch=0;points=[[0,0,0],[0.25,0,0],[0.5,0,0],[0.75,0,0],[1,0,0],[0,1,0],[0.25,1,0],[0.5,1,0],[0.75,1,0],[1,1,0],[0,0.25,0],[0,0.5,0],[0,0.75,0],[1,0.25,0],[1,0.5,0],[1,0.75,0]];outlineConnect=0;fontColor=#232F3E;gradientColor=#F78E04;gradientDirection=north;fillColor=#D05C17;strokeColor=#ffffff;dashed=0;verticalLabelPosition=bottom;verticalAlign=top;align=center;html=1;fontSize=12;fontStyle=0;aspect=fixed;shape=mxgraph.aws4.resourceIcon;resIcon=mxgraph.aws4.lambda;noLabel=0;" vertex="1" parent="1">
          <mxGeometry x="220" y="-40" width="78" height="78" as="geometry" />
        </mxCell>
        <mxCell id="IOINTAL6Y3XgF2sGTh_A-34" style="edgeStyle=orthogonalEdgeStyle;shape=connector;rounded=1;orthogonalLoop=1;jettySize=auto;html=1;exitX=0.5;exitY=1;exitDx=0;exitDy=0;exitPerimeter=0;labelBackgroundColor=default;strokeColor=default;fontFamily=Helvetica;fontSize=11;fontColor=default;endArrow=classic;" edge="1" parent="1" source="IOINTAL6Y3XgF2sGTh_A-35" target="IOINTAL6Y3XgF2sGTh_A-16">
          <mxGeometry relative="1" as="geometry">
            <mxPoint x="989" y="68" as="sourcePoint" />
          </mxGeometry>
        </mxCell>
        <mxCell id="IOINTAL6Y3XgF2sGTh_A-53" value="Trigger" style="edgeLabel;html=1;align=center;verticalAlign=middle;resizable=0;points=[];fontSize=11;fontFamily=Helvetica;fontColor=default;" vertex="1" connectable="0" parent="IOINTAL6Y3XgF2sGTh_A-34">
          <mxGeometry x="0.2619" y="1" relative="1" as="geometry">
            <mxPoint as="offset" />
          </mxGeometry>
        </mxCell>
        <mxCell id="IOINTAL6Y3XgF2sGTh_A-33" style="edgeStyle=orthogonalEdgeStyle;shape=connector;rounded=1;orthogonalLoop=1;jettySize=auto;html=1;exitX=1;exitY=0.5;exitDx=0;exitDy=0;exitPerimeter=0;entryX=0;entryY=0.5;entryDx=0;entryDy=0;entryPerimeter=0;labelBackgroundColor=default;strokeColor=default;fontFamily=Helvetica;fontSize=11;fontColor=default;endArrow=classic;" edge="1" parent="1" source="IOINTAL6Y3XgF2sGTh_A-3" target="IOINTAL6Y3XgF2sGTh_A-16">
          <mxGeometry relative="1" as="geometry" />
        </mxCell>
        <mxCell id="IOINTAL6Y3XgF2sGTh_A-3" value="trivia-games" style="sketch=0;points=[[0,0,0],[0.25,0,0],[0.5,0,0],[0.75,0,0],[1,0,0],[0,1,0],[0.25,1,0],[0.5,1,0],[0.75,1,0],[1,1,0],[0,0.25,0],[0,0.5,0],[0,0.75,0],[1,0.25,0],[1,0.5,0],[1,0.75,0]];outlineConnect=0;fontColor=#232F3E;gradientColor=#4D72F3;gradientDirection=north;fillColor=#3334B9;strokeColor=#ffffff;dashed=0;verticalLabelPosition=bottom;verticalAlign=top;align=center;html=1;fontSize=12;fontStyle=0;aspect=fixed;shape=mxgraph.aws4.resourceIcon;resIcon=mxgraph.aws4.dynamodb;" vertex="1" parent="1">
          <mxGeometry x="680" y="220" width="78" height="78" as="geometry" />
        </mxCell>
        <mxCell id="IOINTAL6Y3XgF2sGTh_A-5" value="trivia-admin-topic" style="outlineConnect=0;dashed=0;verticalLabelPosition=bottom;verticalAlign=top;align=center;html=1;shape=mxgraph.aws3.sns;fillColor=#D9A741;gradientColor=none;" vertex="1" parent="1">
          <mxGeometry x="480" y="13.5" width="76.5" height="76.5" as="geometry" />
        </mxCell>
        <mxCell id="IOINTAL6Y3XgF2sGTh_A-24" style="edgeStyle=orthogonalEdgeStyle;shape=connector;rounded=1;orthogonalLoop=1;jettySize=auto;html=1;exitX=1;exitY=0.75;exitDx=0;exitDy=0;exitPerimeter=0;labelBackgroundColor=default;strokeColor=default;fontFamily=Helvetica;fontSize=11;fontColor=default;endArrow=classic;entryX=0;entryY=0.5;entryDx=0;entryDy=0;entryPerimeter=0;" edge="1" parent="1" source="IOINTAL6Y3XgF2sGTh_A-8" target="IOINTAL6Y3XgF2sGTh_A-3">
          <mxGeometry relative="1" as="geometry" />
        </mxCell>
        <mxCell id="IOINTAL6Y3XgF2sGTh_A-28" style="edgeStyle=orthogonalEdgeStyle;shape=connector;rounded=1;orthogonalLoop=1;jettySize=auto;html=1;entryX=0;entryY=0.897;entryDx=0;entryDy=0;entryPerimeter=0;labelBackgroundColor=default;strokeColor=default;fontFamily=Helvetica;fontSize=11;fontColor=default;endArrow=classic;exitX=0.75;exitY=0;exitDx=0;exitDy=0;exitPerimeter=0;" edge="1" parent="1" source="IOINTAL6Y3XgF2sGTh_A-8" target="IOINTAL6Y3XgF2sGTh_A-11">
          <mxGeometry relative="1" as="geometry">
            <Array as="points" />
          </mxGeometry>
        </mxCell>
        <mxCell id="IOINTAL6Y3XgF2sGTh_A-8" value="5410-project-trivia-games" style="sketch=0;points=[[0,0,0],[0.25,0,0],[0.5,0,0],[0.75,0,0],[1,0,0],[0,1,0],[0.25,1,0],[0.5,1,0],[0.75,1,0],[1,1,0],[0,0.25,0],[0,0.5,0],[0,0.75,0],[1,0.25,0],[1,0.5,0],[1,0.75,0]];outlineConnect=0;fontColor=#232F3E;gradientColor=#F78E04;gradientDirection=north;fillColor=#D05C17;strokeColor=#ffffff;dashed=0;verticalLabelPosition=bottom;verticalAlign=top;align=center;html=1;fontSize=12;fontStyle=0;aspect=fixed;shape=mxgraph.aws4.resourceIcon;resIcon=mxgraph.aws4.lambda;" vertex="1" parent="1">
          <mxGeometry x="220" y="180" width="78" height="78" as="geometry" />
        </mxCell>
        <mxCell id="IOINTAL6Y3XgF2sGTh_A-17" style="edgeStyle=orthogonalEdgeStyle;orthogonalLoop=1;jettySize=auto;html=1;exitX=1;exitY=0.5;exitDx=0;exitDy=0;exitPerimeter=0;rounded=1;entryX=0;entryY=0.75;entryDx=0;entryDy=0;entryPerimeter=0;" edge="1" parent="1" source="IOINTAL6Y3XgF2sGTh_A-9" target="IOINTAL6Y3XgF2sGTh_A-8">
          <mxGeometry relative="1" as="geometry" />
        </mxCell>
        <mxCell id="IOINTAL6Y3XgF2sGTh_A-18" value="GET, PUT, POST, DELETE" style="edgeLabel;html=1;align=center;verticalAlign=middle;resizable=0;points=[];" vertex="1" connectable="0" parent="IOINTAL6Y3XgF2sGTh_A-17">
          <mxGeometry x="-0.1" y="1" relative="1" as="geometry">
            <mxPoint as="offset" />
          </mxGeometry>
        </mxCell>
        <mxCell id="IOINTAL6Y3XgF2sGTh_A-19" style="edgeStyle=orthogonalEdgeStyle;rounded=1;orthogonalLoop=1;jettySize=auto;html=1;exitX=0.75;exitY=0;exitDx=0;exitDy=0;exitPerimeter=0;entryX=0;entryY=0.5;entryDx=0;entryDy=0;entryPerimeter=0;" edge="1" parent="1" source="IOINTAL6Y3XgF2sGTh_A-9" target="IOINTAL6Y3XgF2sGTh_A-1">
          <mxGeometry relative="1" as="geometry" />
        </mxCell>
        <mxCell id="IOINTAL6Y3XgF2sGTh_A-20" value="GET, PUT POST, DELETE, PATCH" style="edgeLabel;html=1;align=center;verticalAlign=middle;resizable=0;points=[];fontSize=11;fontFamily=Helvetica;fontColor=default;" vertex="1" connectable="0" parent="IOINTAL6Y3XgF2sGTh_A-19">
          <mxGeometry x="0.0695" y="-2" relative="1" as="geometry">
            <mxPoint as="offset" />
          </mxGeometry>
        </mxCell>
        <mxCell id="IOINTAL6Y3XgF2sGTh_A-21" style="edgeStyle=orthogonalEdgeStyle;shape=connector;rounded=1;orthogonalLoop=1;jettySize=auto;html=1;exitX=1;exitY=0.75;exitDx=0;exitDy=0;exitPerimeter=0;entryX=0;entryY=0.5;entryDx=0;entryDy=0;entryPerimeter=0;labelBackgroundColor=default;strokeColor=default;fontFamily=Helvetica;fontSize=11;fontColor=default;endArrow=classic;" edge="1" parent="1" source="IOINTAL6Y3XgF2sGTh_A-9" target="IOINTAL6Y3XgF2sGTh_A-15">
          <mxGeometry relative="1" as="geometry" />
        </mxCell>
        <mxCell id="IOINTAL6Y3XgF2sGTh_A-22" value="POST" style="edgeLabel;html=1;align=center;verticalAlign=middle;resizable=0;points=[];fontSize=11;fontFamily=Helvetica;fontColor=default;" vertex="1" connectable="0" parent="IOINTAL6Y3XgF2sGTh_A-21">
          <mxGeometry x="-0.0435" y="2" relative="1" as="geometry">
            <mxPoint y="1" as="offset" />
          </mxGeometry>
        </mxCell>
        <mxCell id="IOINTAL6Y3XgF2sGTh_A-9" value="5410-project-api" style="sketch=0;points=[[0,0,0],[0.25,0,0],[0.5,0,0],[0.75,0,0],[1,0,0],[0,1,0],[0.25,1,0],[0.5,1,0],[0.75,1,0],[1,1,0],[0,0.25,0],[0,0.5,0],[0,0.75,0],[1,0.25,0],[1,0.5,0],[1,0.75,0]];outlineConnect=0;fontColor=#232F3E;gradientColor=#945DF2;gradientDirection=north;fillColor=#5A30B5;strokeColor=#ffffff;dashed=0;verticalLabelPosition=bottom;verticalAlign=top;align=center;html=1;fontSize=12;fontStyle=0;aspect=fixed;shape=mxgraph.aws4.resourceIcon;resIcon=mxgraph.aws4.api_gateway;" vertex="1" parent="1">
          <mxGeometry x="-50" y="140" width="90" height="90" as="geometry" />
        </mxCell>
        <mxCell id="IOINTAL6Y3XgF2sGTh_A-10" value="trivia-questions" style="sketch=0;points=[[0,0,0],[0.25,0,0],[0.5,0,0],[0.75,0,0],[1,0,0],[0,1,0],[0.25,1,0],[0.5,1,0],[0.75,1,0],[1,1,0],[0,0.25,0],[0,0.5,0],[0,0.75,0],[1,0.25,0],[1,0.5,0],[1,0.75,0]];outlineConnect=0;fontColor=#232F3E;gradientColor=#4D72F3;gradientDirection=north;fillColor=#3334B9;strokeColor=#ffffff;dashed=0;verticalLabelPosition=bottom;verticalAlign=top;align=center;html=1;fontSize=12;fontStyle=0;aspect=fixed;shape=mxgraph.aws4.resourceIcon;resIcon=mxgraph.aws4.dynamodb;" vertex="1" parent="1">
          <mxGeometry x="680" y="-60" width="78" height="78" as="geometry" />
        </mxCell>
        <mxCell id="IOINTAL6Y3XgF2sGTh_A-11" value="trivia-admin-email-subscriptions" style="sketch=0;points=[[0,0,0],[0.25,0,0],[0.5,0,0],[0.75,0,0],[1,0,0],[0,1,0],[0.25,1,0],[0.5,1,0],[0.75,1,0],[1,1,0],[0,0.25,0],[0,0.5,0],[0,0.75,0],[1,0.25,0],[1,0.5,0],[1,0.75,0]];outlineConnect=0;fontColor=#232F3E;gradientColor=#4D72F3;gradientDirection=north;fillColor=#3334B9;strokeColor=#ffffff;dashed=0;verticalLabelPosition=bottom;verticalAlign=top;align=center;html=1;fontSize=12;fontStyle=0;aspect=fixed;shape=mxgraph.aws4.resourceIcon;resIcon=mxgraph.aws4.dynamodb;" vertex="1" parent="1">
          <mxGeometry x="680" y="90" width="78" height="78" as="geometry" />
        </mxCell>
        <mxCell id="IOINTAL6Y3XgF2sGTh_A-12" value="trivia-user-email-subscriptions" style="sketch=0;points=[[0,0,0],[0.25,0,0],[0.5,0,0],[0.75,0,0],[1,0,0],[0,1,0],[0.25,1,0],[0.5,1,0],[0.75,1,0],[1,1,0],[0,0.25,0],[0,0.5,0],[0,0.75,0],[1,0.25,0],[1,0.5,0],[1,0.75,0]];outlineConnect=0;fontColor=#232F3E;gradientColor=#4D72F3;gradientDirection=north;fillColor=#3334B9;strokeColor=#ffffff;dashed=0;verticalLabelPosition=bottom;verticalAlign=top;align=center;html=1;fontSize=12;fontStyle=0;aspect=fixed;shape=mxgraph.aws4.resourceIcon;resIcon=mxgraph.aws4.dynamodb;" vertex="1" parent="1">
          <mxGeometry x="680" y="363.5" width="78" height="78" as="geometry" />
        </mxCell>
        <mxCell id="IOINTAL6Y3XgF2sGTh_A-27" style="edgeStyle=orthogonalEdgeStyle;shape=connector;rounded=1;orthogonalLoop=1;jettySize=auto;html=1;exitX=1;exitY=0.25;exitDx=0;exitDy=0;exitPerimeter=0;entryX=0;entryY=0.5;entryDx=0;entryDy=0;entryPerimeter=0;labelBackgroundColor=default;strokeColor=default;fontFamily=Helvetica;fontSize=11;fontColor=default;endArrow=classic;" edge="1" parent="1" source="IOINTAL6Y3XgF2sGTh_A-15" target="IOINTAL6Y3XgF2sGTh_A-12">
          <mxGeometry relative="1" as="geometry" />
        </mxCell>
        <mxCell id="IOINTAL6Y3XgF2sGTh_A-30" style="edgeStyle=orthogonalEdgeStyle;shape=connector;rounded=1;orthogonalLoop=1;jettySize=auto;html=1;exitX=1;exitY=0.75;exitDx=0;exitDy=0;exitPerimeter=0;labelBackgroundColor=default;strokeColor=default;fontFamily=Helvetica;fontSize=11;fontColor=default;endArrow=classic;" edge="1" parent="1" source="IOINTAL6Y3XgF2sGTh_A-15" target="IOINTAL6Y3XgF2sGTh_A-31">
          <mxGeometry relative="1" as="geometry">
            <mxPoint x="470" y="524.6399999999999" as="targetPoint" />
          </mxGeometry>
        </mxCell>
        <mxCell id="IOINTAL6Y3XgF2sGTh_A-15" value="5410-notifications (users)" style="sketch=0;points=[[0,0,0],[0.25,0,0],[0.5,0,0],[0.75,0,0],[1,0,0],[0,1,0],[0.25,1,0],[0.5,1,0],[0.75,1,0],[1,1,0],[0,0.25,0],[0,0.5,0],[0,0.75,0],[1,0.25,0],[1,0.5,0],[1,0.75,0]];outlineConnect=0;fontColor=#232F3E;gradientColor=#F78E04;gradientDirection=north;fillColor=#D05C17;strokeColor=#ffffff;dashed=0;verticalLabelPosition=bottom;verticalAlign=top;align=center;html=1;fontSize=12;fontStyle=0;aspect=fixed;shape=mxgraph.aws4.resourceIcon;resIcon=mxgraph.aws4.lambda;" vertex="1" parent="1">
          <mxGeometry x="210" y="420" width="78" height="78" as="geometry" />
        </mxCell>
        <mxCell id="IOINTAL6Y3XgF2sGTh_A-39" style="edgeStyle=orthogonalEdgeStyle;shape=connector;rounded=1;orthogonalLoop=1;jettySize=auto;html=1;exitX=1;exitY=0.5;exitDx=0;exitDy=0;exitPerimeter=0;entryX=0;entryY=0.5;entryDx=0;entryDy=0;labelBackgroundColor=default;strokeColor=default;fontFamily=Helvetica;fontSize=11;fontColor=default;endArrow=classic;" edge="1" parent="1" source="IOINTAL6Y3XgF2sGTh_A-16" target="IOINTAL6Y3XgF2sGTh_A-36">
          <mxGeometry relative="1" as="geometry" />
        </mxCell>
        <mxCell id="IOINTAL6Y3XgF2sGTh_A-55" value="API Call" style="edgeLabel;html=1;align=center;verticalAlign=middle;resizable=0;points=[];fontSize=11;fontFamily=Helvetica;fontColor=default;" vertex="1" connectable="0" parent="IOINTAL6Y3XgF2sGTh_A-39">
          <mxGeometry x="0.2708" y="2" relative="1" as="geometry">
            <mxPoint x="-60" y="2" as="offset" />
          </mxGeometry>
        </mxCell>
        <mxCell id="IOINTAL6Y3XgF2sGTh_A-16" value="5410-project-analytics" style="sketch=0;points=[[0,0,0],[0.25,0,0],[0.5,0,0],[0.75,0,0],[1,0,0],[0,1,0],[0.25,1,0],[0.5,1,0],[0.75,1,0],[1,1,0],[0,0.25,0],[0,0.5,0],[0,0.75,0],[1,0.25,0],[1,0.5,0],[1,0.75,0]];outlineConnect=0;fontColor=#232F3E;gradientColor=#F78E04;gradientDirection=north;fillColor=#D05C17;strokeColor=#ffffff;dashed=0;verticalLabelPosition=bottom;verticalAlign=top;align=center;html=1;fontSize=12;fontStyle=0;aspect=fixed;shape=mxgraph.aws4.resourceIcon;resIcon=mxgraph.aws4.lambda;" vertex="1" parent="1">
          <mxGeometry x="920" y="152" width="78" height="78" as="geometry" />
        </mxCell>
        <mxCell id="IOINTAL6Y3XgF2sGTh_A-31" value="trivia-user-topic" style="outlineConnect=0;dashed=0;verticalLabelPosition=bottom;verticalAlign=top;align=center;html=1;shape=mxgraph.aws3.sns;fillColor=#D9A741;gradientColor=none;" vertex="1" parent="1">
          <mxGeometry x="480" y="441.5" width="76.5" height="76.5" as="geometry" />
        </mxCell>
        <mxCell id="IOINTAL6Y3XgF2sGTh_A-35" value="EventBridge (CloudWatch Events): push-data" style="sketch=0;points=[[0,0,0],[0.25,0,0],[0.5,0,0],[0.75,0,0],[1,0,0],[0,1,0],[0.25,1,0],[0.5,1,0],[0.75,1,0],[1,1,0],[0,0.25,0],[0,0.5,0],[0,0.75,0],[1,0.25,0],[1,0.5,0],[1,0.75,0]];outlineConnect=0;fontColor=#232F3E;gradientColor=#FF4F8B;gradientDirection=north;fillColor=#BC1356;strokeColor=#ffffff;dashed=0;verticalLabelPosition=bottom;verticalAlign=top;align=center;html=1;fontSize=12;fontStyle=0;aspect=fixed;shape=mxgraph.aws4.resourceIcon;resIcon=mxgraph.aws4.eventbridge;fontFamily=Helvetica;" vertex="1" parent="1">
          <mxGeometry x="920" y="-10" width="78" height="78" as="geometry" />
        </mxCell>
        <mxCell id="IOINTAL6Y3XgF2sGTh_A-41" style="edgeStyle=orthogonalEdgeStyle;shape=connector;rounded=1;orthogonalLoop=1;jettySize=auto;html=1;exitX=0.5;exitY=1;exitDx=0;exitDy=0;labelBackgroundColor=default;strokeColor=default;fontFamily=Helvetica;fontSize=11;fontColor=default;endArrow=classic;" edge="1" parent="1" source="IOINTAL6Y3XgF2sGTh_A-36" target="IOINTAL6Y3XgF2sGTh_A-40">
          <mxGeometry relative="1" as="geometry" />
        </mxCell>
        <mxCell id="IOINTAL6Y3XgF2sGTh_A-36" value="GoogleSheets API" style="shape=image;verticalLabelPosition=bottom;labelBackgroundColor=default;verticalAlign=top;aspect=fixed;imageAspect=0;image=data:image/png,iVBORw0KGgoAAAANSUhEUgAAAV4AAAGQCAYAAADmyQjeAAAAAXNSR0IArs4c6QAAAARnQU1BAACxjwv8YQUAAAAJcEhZcwAADsMAAA7DAcdvqGQAAAAZdEVYdFNvZnR3YXJlAHBhaW50Lm5ldCA0LjAuMTJDBGvsAABEg0lEQVR4Xu2dB7hlV0Hvg1ieT58k0yeVDk9REQL6FAXRUTqZlk5CkyJFsNDDAMlkegotddJIIcncO4SEJPj0k+AzCCQzQXzw5GHhqcFCiY3iEPZbvzt3hTVr/ruefc4999z///t+38zcOefsvdde67fWXnvtcw9xHMdxHMdxHMdxHMdxHMdxHMdxHMdxHMdxHMdxHMdxHMdxHMdxHMdxHMdxHMdxHMdxHMdxHMdxHMdxHMdxHMdxHMdxHMdxHMdxHMdxHMdxHMdxHMdxHMdxHMdxHMdxHMdxHMdxHMdxHMdxHMdxHMdxHMdxHMdxHMdxHMdxHMdxHMdxHMdxHMdxHMdxHMdxHMdxHMdxHMdxHMdxHMdxHMdxHMdxHMdxHMdxHMdxHMdxHMdxHMdxHMdxHMdxHMdxHMdxHMdxHMdxHMdxHMdxHMdxnDHOhg0bvm/9DRt+cN31O354fvL6seU1t57/Q7PF7DiOc8gh6//n5oesvn3jquNu3fj259+28Yrjbj/7ltW3n33r82/f2J7bNt76vBY897YzS3hXJc++tYx3SJ5VyYZSnjEgv37Lfl7ysfdcu/1z04+eLXLHcRZqwuj2R1ffuvHE427b+IfPu+2sv33mR97xr0+/6W3/+ZTdb/ruU3a/sXjyrt8J/LbkSSUcu+v1xbE3HswTS3jCja+T/MyNv1XK4+EGxWuLny7hp6q4/jXFT1bwuEpeXfxEBT/+wVfNcNLvb9+3Ze/uO7ffY/k6zoIMUwprPrrpl1bfdtYfH3f7Wf/6yze/9TuIC0E89rrfLB5z3Sv3c+0ri0df+wrJo655ueSRJTzimpdJHn7NbxQPv/pgHlbBQ69+aQkvKY75QDlHl/Li4qiryjmygiOuelElh1/1wuLwK19YrLltU7Ft7+77t+6dvuO8uz589OypcBxnIWTDH234/jW3n/3q4z668d5VN7/tu4wGH3Odlis86togVMEjgzQVSq4wI1jBw4IwFVqs+zkGwZaARMs4qoIjgyTLUEKNzIi1gpVXnl6svOL0IN6zi2337C6237N73/bP7L5y+//58JLZU+I4ziTn1I9u+5HjPnLWm59zyzu/+uSp3wmjW0a2r3gAJV5Q4gWLt4t4PwTf3L73Q9u33TO17JDikAfNnh7HcSYtrFY47tazXrbq5jO+zDzpYxPhWrwjEO+tB4i32L539zfDn+du/+zuo4qisHwdZxKz9iNnHftrN5/xuTLpWrxauqCEG1GyTSkVb2Db3t3f2rp36oqtn51+xOxpchxnUrL+hvUPfu6t7/rgsbted38+vZCipAtKumDxDibeWfl+e/s9u27Z/rmPeLWD40xSVn9009OfdtObv/HYD7aXLjSVLijpgpIuKOmCEm5ECTeihBtRwo0o4UaUcCNKtil14t0+87Ppfdv2Tt25Zc+uR82eMsdx5nuef9tZf8h6UyXciBIuKOmCki4o6YKSLijpghJuRAk3ooQbUcKNKOFGlHAjSrYpzcQb2Dt9fxDwHZs/M3Xk7GlzHGe+Zt1tWx7zSx9607eUbCNKuBElXVDSBSVdUNIFJV1Qwo0o4UaUcEHJNqJkG1GyTVGyTWks3hmm9wUBX7n9Li81c5x5neNu3/jKx33wNd9Bom2EG1HSBSVdUNIFJV1Q0gUl3IgSbkRJF5RwI0q4ESXbFCXblHbi3V1s2zvNDbftG/dcv9RLzRxnnubpN71116OvecV3lVTrUMIFJdyIki4o6YKSLijhRpRwQQk3ooQbUcKNKNmmKNmmtBXvjHzvmf5m4NzNd334aC81c5x5mJ+b+t0vKKnWoYQbUcIFJdyIki4o6YISbkRJF5RwI0q4ESXciJJtipJtShfxwszI957dV5x9902PnD2VjuPMh6wvbnjw4z/42i8rsVahZBtRwo0o4YISLijhRpRwI0q6oIQbUcKNKOFGlGxTlGxTuooXwuuZdrjZX6zjOPMpxSEPetx1r24lXiXbiJJtRAk3oqQLSrgRJdyIki4o4UaUcCNKuBEl2xQl25QBxVts3Tu9b+s903/ihywcZx7l0de+/F4lWIWSbYoSbkQJF5RwI0q4ESXciJIuKOFGlHAjSrgRJdsUJdvIjHQHFO8Me6fv37J39x079t58xOxpdRxnnPPIa3/j3ijOLrKNKNlGlHAjSrgRJVxQsk1R0gUl3IgSbkQJN6Jkm6KEG6kX78GyTXlAvDPwkMX0lWd/cnrx7Kl1HGdck4p3EJRwI0q4ESXciJIuKNlGlHBByTZFCTeihAtKtDlKuJF+xTsz7fCtLXunt+1faubVDo4ztulDvEq2ESXbiJJtRAk3ooQbUdIFJduIkm1ECTeiRJuiZJvSt3hn+ea2vbvP23b3rmO81MxxxjSDiFeJNkcJN6KEG1HCBSXbiBJuRAk3ooQbUcKNKNmmKNmmDEm8zPl+c8s905f7hpvjjGm6iFcJVqFkG1GyjSjhRpRwI0q4oGQbUbJNUcKNKNmmKNmmDE28gdlphw/7i3UcZwzzyGvaiVcJVqFkm6KEG1HCBSXbFCVdUMKNKNmmKOFGlGxTlGxThile2HrP7v/kW83O+dSuh8+ebsdxxiGPuOal90ZZDiLaFCXaFCXbiBJuRMk2ooQLSrYpSrYRJdsUJdsUJduUavEeLNqcXLQSvtVs7/QdW+7+0OGzp9xxnLlOKt4+UKJNUbKNKNlGlGxTlHRByTZFCTeiZBtRok1Ros0ZRLwHCbaSaX51/JU7/vz2RbOn3XGcuUxf4lWSzVGyTVHCjSjZRpRwI0q2ESXbFCXciJJtihJtzujEu3/ON4x8Z3+Bplc7OM6cpg/xKsnmKNGmKNlGlGxTlHBByTZFyTaiZJuiZJuiRJvygHRHJF7Yunf3N7beM+WlZo4z1xlEvEqwCiXaHCXciJJtRAk3omSbooQbUbKNKNGmKNHmzIV4Yes909/Ysmf68q2f9lIzx5mztBWvEmsVSrI5SrYRJdsUJdyIkm1EyTaiZJuiZJuiRJszV+KFuNTM63wdZ47y8CDeVJRdBatQks1Rso0o0aYo2UaUbCNKtilKthEl2hwl2pQDpNtBvLlIu8BSsy17d9+5ae/uh85WBcdxRpVcvH2hJJujZJuiZBtRso0o2aYo2aYo4UaUaHOUbFPGQbwz7N19/9a7d338nE9PrZytDo7jjCJ9i1cJVqFEm6Jkm6KEG1GyTVGyjSjZpijRpijR5tSL92DZphwk0AHYundq3+Y9U1ft+PPrvdTMcUaVvsSr5FqGEm2KEm2OEm5EyTaiZJuiZBtRos1Rok05SLpzKN6te6dn2LJn6ltb9uze4aVmjjOi9CFeJdcylGhTlGRzlGwjSrYpSrYRJdsUJdocJduUcRTvLP/BL9A878/9CzQdZ+hpK14l06Yo0eYo0aYo2UaUaHOUcCNKtilKtClKtDn14q0nF2hXMvEGpv5jy57pyzb5ux0cZ7h52DUvuVdJsk+UYHOUZHOUbFOUaFOUbFOUbCNKtDlKtClSutBCvLk8u3KwdPfDtMPWvbtusnwdZ4gZpniVYBVKsgol24gSbYoSbY4SbkSJNkWJNkdKF8ZIvDPsmdq3ee/UnWfeveuY2WriOE6fGZZ4lWAVSrAKJduIEm2OEm2Kkm2Kkm2KEm2OlC48IN5pKdsUJdEuSOGm7Jm+f/PdUx/f+skbVsxWFcdx+kqf4lVirUIJVqFkm6JEm6JEm6NkG1GiTVGSzZHCjTQUrxJoV6RsD2Jq37Y9Ux/Yftc1S2ari+M4faQv8SqxVqEEq1CiTVGizVGiTVGyTVGyTVGizZHCjYxYvFqymi17pr65Ze/Ujo2fuHa5l5o5Tk952NXdxauEWoeSaxlKtClKsjlKtClKtClKtDlKtClStiljLF4I8v2PrXumz9l81w1eauY4feShQbxKkH2jxFqFEm2KkmyOEm2Okm1ESTZHiTZHyjalgXiVQLui5FoP8p3a6e92cJwe8tCrXzx08SqxVqFEm6Ikq1CiTVGyTVGizVGizZGyTVgxQvFqqTaDpWab907fdO7nLV/HGSjDFK+Sah1KtClKsAol2hQl2hQlWYUSbYoSbU6deJVAu6KE2o6pfVv27Lpz+2d3HzVbhRzHaZthiFcJtQ4l2RwlWIUSbYoSbY6SbI4SbY4SbcoKCOJd/ZGNQYzDFa8WaQf2TN8f5PvHZ/lbzRynW/oSr5JpU5Rkc5Rgy1CyTVGiTVGSzVGSVSjZpnxPvGcFOR4sXiXQrkiJdiaMfO/a9YGNe65fOluVHMdpmkHEqyTaFiXZHCXXMpRoU5RoU5RkFUqyOUq0KTPShSDeZ920gV/FPo/Ey5zv9De23j29feMnbvJSM8dpk6biVdIcFCXZHCXXMpRoU5Roc5Rkc5RkFUq2Kal4j732dUFmU/NKvBDk+++s893+qeuO8lIzx2mYY4J4lRSHiRKsQsm1DCXaFCXZHCVZhZJsjhJtTireh17+kmLDn14zNOmCEuegbAls3jP1jcBOfnvxbLVyHKcqoxSvkmsZSq4KJVmFEm2OkmyOkmyOkmzOA9KFIN7DLzu9eOFt58xL8c7K91ub9+y6yfJ1nAYZtniVVKtQci1DCVahJJujJJujJKtQos3JxbvistOKJ1z56iCwXfNGuhDFO8OeqX2b9kzduf1TXmrmOJUZlniVVOtQci1DCVahJJujJJujBKtQks05QLqAeC8/rTjyktOL3/yD981f8cKe6fs33T318R17bz5itoo5jpOnL/EqkTZFibUOJdkcJVmFEm2OkqxCiTZHijewcudpxZOufG2x8a4bpDy7ooTZFweJF/g+3z1TV838DjfHcQ7OoOJVIm2DkmodSrI5SrAKJVmFkmyOkmzOQdKNzE43HH3pC4sTP7xpZspBSbQLSph9IcUb2Lxn+htb7p7etv8XaB7i1Q6Ok6apeJU0B0VJtQolWIUSrEIJVqEkm6Mkq5DSjVx+2syo98d3vqx46e3nFZvu7ke+Sph9oISbEuT775v2TO3Y/JmpI73UzHGSHHX1i+5VUhwWSqhNUIJVKMEqlGAVSrIKJdkcKdsc5HvJqcVP7nxF8cKP7CjOHnDaQQmzD5RoFZv3Tn1j091Tl/KVkrNVznGcUYhXibQpSq5lKMEqlGAVSrAKJdkcKdmcK04vlgfxrrjsBcXKi08tHnPhS4rnXndG8Y47r5FSrUMJsy+UZMsI8v3Wpj033rT5rg9bvo5DhiVeJdG2KLmWoQSrUIJVKMGWoUSbIiUrWH7FafuZle+KIN9j3vuC4tj3vLx48fT2YuOnb5iRnpKsIpdlnyjBljMV2DXzCzQ3feI6f6Wk4/QpXiXPLiixVqEEq1CCLUMJVqFEm6Mkm/OAdB+QbxAv8r301OLw951SPGLTycWxW19anHLdxuItd1xRnF0j4VyUfaLlWgXiDeyZun/znhvvONPrfJ2FnkHEq6Q5CEqqVSi5VqEEq1CCVSjJ5ijJKg4S7wHyfUGx8sJTiqM2n1A87Iz1xaPefmLxhLNfVDzl3FcVTz3/NcWzLnpD8dxL33wgl7ypMc+55I1D4dnhs599cfjz4jeEv/PvNxbPuPj3vv2r73/d2bPVz3EWZo5sKF4lyr5QUq1DibUMJdcylGAVSrIKJdkcKV24fBbkuzNw8SnF4dtOKI48c31x1DvWFUefsbY4+m1ri2PeeiBHvwXWNOaoN69uwXGtODLjiDcft+/wtx53/mz1c5yFmSOvfuG9SoajQAm1CUquZSi5lqEEW4aSbI6SrEJKNxLlG0a/y3eeWqy4KMj33BOKI7asL47YtL448uzAxlnO2s8RZ65rydrGHP6uNY1ZKVhx5tp9y85cZ/E6CztzIV4l06YouZah5FqGkmsZSrIKJdkcKdsykC+j30tOKVa++8Qw+j3+AY7YOsuW8O/NbVjfgnXFyk3NWaHYHMS7yeJ1FnhGKV4l0qYosVah5FqGkmsZSrAKJdkcKddSgnQjCPjSU4uV7z2pOPycE4rDd8yy/YRiZSuOb8WKbetbsVyybt/SrRavs8AzTPEqgbZFSbUOJdcylFzLUIJVKMkqtGAViXRTLkO+JxeHnxtGv3DOicXKxgTxtmDFjiDeliwXLNuxft/S7Ravs8DTt3iVPLuipFqFEmsVSq5lKMEqlGAVWrBlCOlGwuh35fv3y1cLtgwt2DKUWOvQ4j3e4nWcQcWrhDkoSqp1KLFWoeRahZKsQklWoQWrELIVrHzfycVK5NuYINSGrDgniLQly0tYdk4Q7zkWr7PA01S8SpB9o4TaBCXWKpRYq1CCVSjBKrRgFVqyimWs+X1vU/lqwZax4lwt1yqUdGexeB3niCBeJcFRomTaBCXVOpRYq1CCVSjBKrRgy9CSVSzjT5abMfI9L8i1kiDUhqwAxNuC5RUsOzeI9zyL11ngmUvxKpk2RUm1DiXWKpRgFUqwZWjBKg6WaxlINzIj3/cH+Z6vhHvifpG2RAm0iiDXKixexxmleJVA26KE2gQl1jKUXKtQgs3Rcq3iYMEqUuk+wGWz8n33SRlBvG0I8l5+fhBvC5bVgniPt3idhZ1hi1fJswtKpk1QYq1CibUKJVmFlmsZWrI5UroR5nwv4EGL74lXyrUGJdcqtGwPYN/S8y1eZ4FnGOJV4uyKkmlTlFirUGKtQglWoeVahpasQgo3BfleGOT7niDewIr3BJm2YPm7g0xbsKwZFq/j9CFeJcw+UDJtihJrHUquZSjBKrRcq9CSzZGiLYGRrxJrHUquVQjJKixexzniqmbiVWIcFkqkbVBSrUPJtQwl2DK0XMvQks1Rcq3ksvC+C9qNeJVYqxCCLcPidZzDrzr9XiW/uUBJtC1KqnUouZah5FqGlmsZBwu2DCnXCpZefmqxbOcp++X73iDWOhDve4JQW7CsORav44yDeJVA26KEWocSaxVKrmVouVahJZujxFoH4n1AvheeXKx4X7WAl0OQZFOEXEtZavE6zujFq6Q5CEqoTVBirULJtQwt1iq0ZBVKrGVE4R7AZUHAF51cLA/yVSwL0m3L0nbsC/K1eJ2FnVGIVwlzUJRMm6LEWoWSaxlarFVowSqUXKuQ4oUo3/cH2SYse18QaUuWtsfidZxhiFeJsk+UTJuixFqFkmsZWqxVaMEqlFirkMJNEfJVYq1DiLUOi9dx+hKvEmTfKJE2RUm1DiXXMrRY69CSzVFirUKKtoQoXyXVJgix1mHxOk5T8SoRjgol0jYoqdah5FqGlmodWrIKJdcqlGBLmR35Lnt/EGlLlnZj39L3WbzOAs/KIF4lu7lGCbQtSqh1KLFWoaVahxasQom1CinXOnaeUiy9KIx6gxibIoTakBOCeL2qwVngGUfxKom2RUm1DiXWKrRU69CCVSix1iHFWsOSy08pllx28n75XqBFm6OlWs8SRrwXWLzOAs9ci1dJsytKpk1RYq1CS7UKLdcqlFirUFKtY0a6kcvCyPfik4N8EXA5Swdgv3g91eAs8MyFeJU0B0XJtAlKqnVosVahxVqFEmsVSqp1HCDdhvJVMm1KkK7F6zhkVOJVsuwDJdOmKKnWocVah5ZrGUqsdSix1iHFO8vSS4J8LwyyzVjaFcR7QRDvBRav4wxVvEqUfaFE2gYl1Sq0UJug5VqGkmodSqp1KNnmIN9UnksGYHGQ7iz7Flu8zkJPX+JVchwWSqRNUVJtgpZqHVquZSip1qGkWoeSbBlMOwws3QsfkK7F6zikrXiVCEeFEmkblFCboKVah5ZrGUqqdSipNkEJthTmfMPId8lFQaIdmRHv99i3+EKL11ngWXHVafcqyY0LSqBdUEJtgpZqHVquVSixVqGE2gQp1zqCfJcg34u1WKtYfNEB0rV4HYeMm3iVNLuiRNoELdMmaKnWocRah5JqHVKqDVgMyPfSWfk2JYr3QCxexxkH8SppDooSahO0UJugpVqHkmodSqpNUFKtY0a6kZbyFdIFi9dx5lK8SpiDomTaFC3UpmixVqGkWocSahOUVOs4QLoJTeUrpAsWr+OMWrxKln2gRNoGLdOmaLFWoaRahxJqE5RUm6CkG9kv33IWz0wzSIJ4T7J4nYWdUYhXibIvlETboEXaBi3WKpRUm6Ck2gQl1TqUbHNm5MtNN8FiRrwai9dxVlzZr3iVHIeBkmhbtEiboqVahxJqE5RQm6CkWoeSrCTO+TaXLli8joN4EZmSaCSX3lyiBNoWLdI2aKnWoYTaBCXUJiipNkFKtgzku9PidZxWWX7lC2bEO84oeXZBS7QNWqhNUEJtghJqE5RQmyDl2gDku/iSINY6LF7HGV/xKnF2RUu0LVqodSiZNkUJtQlKqE1QQm3FpUK0B7MvyNfidRZ2xkm8SpqDoiXaFi3VOpRMm6KE2hQl1SZImTZk0WUnz9BAvhav48y1eJUs+0ALtC1aqE1QMm2KkmlTlFCboGTalCjdhvK1eB1nLsSrRNknWqJt0UJtgpJpU5RMm6KE2gQl0zbk4q2Rr8XrOMMWrxLjsNACbYuWaVOUTJuiZNoUJdQmKJG2QUl3Bm62aflavI7Tt3iVEIeJlmdXtEyboETaBiXTpiihNkXJtA1SuhEtX4vXcRCvEto48LjrX1P84u43Hcz0G2d4yhjxC514Q/ELU28ofr4zvyf5uV2/Wxweyk+JNqIk2hYpW0EmX4vXcZaNsXjf/omri8/8/f8tPnPvF4t7wp+TxxeKvX/XP3/6pf9dPP7610rhgpJoW5RgK9l5UrEoCHhREO9hFq+z0DPO4j3v7t3Fv/zLv5iW/MNX/7l48o2/PT7SjeyXr8XrOOMo3jjneu5dFm8XhileKdQ2WLyOMx7iPfAG1/eweLtRJl4l0rZImbZj30MutXidBZ65Eq8SbY7F2w0lXiXRtgiJtuawy06yeB1nVOJVYq3D4u1GLl4l0bYoiXbB4nWckGVXdBevkmWfWLzdSMWrJNoWJdC2BOFGLF7HQbxKeuOAxduNKF4l0S4okbbF4nWcJBbv5IF4n9STeJVE25JI1+J1HDIJ4v3qfV8rvvL14fHVr3+9uE9sN+fr990n398nbENtO6Uv8SqJtiWTrsXrOGQSxPucW95ZrLjytGLFFS9ojfrehZzn3PKu4rP3/qXcdsqNn7+jOOYDLymWXX5qZ/Z//8IpkqOuelGx464pue2UPsSrJNoFi9dxRMZXvC8I4p2WYsmZEW8myzrCcTeGz//svV+U2065YVa8+ZfYtCGuRFAcedULRyJeJdAuCOmCxes4QSxjJN4D5TgM8eZSbcIoxKtEmzOfxCuEG7F4HSeIZQ7Eq6WY05d4c5G2ZdjiVZJVjEK8SqJdEMKNWLyOE8QyZPFqGTZhUPHmAu3KMMWrBFvGsMWrBNoFIdsUi9dxglh6FO/B8huEQcSby3MQhiVeJdcqhileJdAuCNHmWLyOs+yKU4N4D5TWuNBWvEqafTAM8Sqx1nHkkFY1KIF2QUhWYfE6ziSI99lBjLxeSXNQkOSzb35n8Wd/Xy/euJwsl2yKEmpThjHiVQLtghBsGRav41i8mlSWfYlXybQNiHd7j+JVAu2CkGsVFq/jWLwHkwuzqXjLphqURLvQp3iVQLsi5FqFxes44ypeBDhK8eayTBlEvEqgbYmyPKIn8Sp5dkWItQ6L13HGSby5DEch3lSSZXSZalAC7UIqzD7Eq+TZFSHVJli8jjNX4lUSzGkq3r/+p78vvvAPX+rEXzSAz//afV+X2075x699pfjCP/4/+Rl9wGff+9V/kttOKROvkmdXhFCbYvE6zijEq6TahKbiNQeixKvk2RUh0zZYvI7Tl3iVOAfF4u1GLl4lz64IkbbF4nWcpUG8SnrjgMXbjVS8Sp5dERLtgsXrOBbv5IF4j73x9VKegyAk2gWL13Es3sljGOIVAu2Kxes4Fu/k0bd4hTwHweJ1nEkQ784/+2hx5p9eW7xrSFwWPv9L//xlue2UPX/3F8WmT10vP6MPzv7k9cUf/dVeue2UPsUrxDkoFq/jTIJ4n3vLu4qVV55erLyiX1Zcwe9xO23m85t8O9muz3+8eNjVL33gfWXor9Ssh4czzmlQJn2JV0izDyxexxlH8cYnxppIBp518zuSXxQ5OPnTY3x+00eGj/7Aiw96fyQu7+pKmyfXBhWvEGZfWLyOM9fiVeKLjFq8SpbQh3iVSNsyKvEKWfaJxes4cyFeJT3FqMSrRJkyiHiVQLsyCvEKUfbKoTtP2vdjFq+z0BPEM5B4c4n1yTDFm8qxji7iVeIclGGKV0myb4J0LV7HIYuDeJWYxoG+xZsLtSltxHtUEK+SZh8cfmUQ76d3yW2ntBWvkmTfzErX4nUcMuniVSJtyziIF0Ei3m09i1dJsm8S6Vq8jkMmVbxKoF2Za/FGSfYtXiXJvsmka/E6Dpk08SpxDspciTcXZZ/iVZLsGyFdsHgdZxLE+8ybN4TXa2n2wVyIV8myL/EqSQ4DIV2weB3H4q1n1OJVsoQ+xKsEOQyEcCMWr+NMgng33Hl1ccpHtxUnD4kNn7i6+OI//q3cdsodf31P8aI/OFd+RlNOun3rDCcLTvv9c2YeS1bbTlHiVXIcFkK2KRav44ybeNORZlPx8jvR1O8o64tWv3NNvL8df1PBlxr/zrVUvEqOw0KINsfidZy5Fm8q2pxzGjwsYA4mFa+S47AQklVYvI4zKvEqsdZh8XYD8T7xxtdJOQ4LIdgyLF7H6VO8Sp6DYPF2Y9TiFXKtwuJ1nEVBvEp644DF241RiVdItQkWr+NYvJPHKMQrhNoUi9dxJkG8rCb48lf/aWjw+ffdd5/cdgorH9T7++SrX/+a3HbKsMUrZNoGi9dxJkG8r/rY+4unf+gtxS8PiVd/7IKZ5Vxq2ym3f/HTxTNu3jDznqftfnPv/NpNZxRXfPb35bZThileIdK2WLyOMwni5ck1Xq+eAuuDxk+ufe5jxZFXveiB9bN90+bJtWGIV0i0Cxav40yCeBll8nolzT6weKVAu2LxOo7FW8/4iPf0ORGvkOcgWLyOY/HWMy7iXXnlaSMXrxDnoFi8jjNO4s2Ft8PinSFKcNTiFdLsA4vXcYYpXiWxNoyLeLl5NxfizUU4KvEKWfaJxes4XcSr5DQM5lq8UYDP/PBoxatkCKMQrxBl31i8joN4lXTGgbkQrxLhKMWrZBgZtniFJIeBxes4Fu/3UCKEUYhXiTBnmOIVghwWFq/jLHTxKgnmDFO8SoJlDEu8Qo7DxOJ1nEkQ78zvXLuCr6VsxsznX9ac5qsa7iiOuurF8jM0WsZlDGMdrxDjsLF4HWcSxHvBPbcUb/mTK2u4YoY3/6/2XLD3luJv/vleue2UT//t54u333m1/Iw+OOPODxS//5d3yW2nNBGvEOKosHgdZxLEaw6kTrxChqPE4nUci3fyqBKvEOGosXgdx+KdPJR4hQDnCovXcSzeySMXr5DfXGLxOo7FO3nMiPeG1ynpjQMWr+OMm3jT5VPbPz1V3CfEYqpBvE8YU/E+ZOeJQbwnWLzOws5ciDeVaxUWbzcsXscZ8wTB1Yo3F+KosHi7MW7iDbJNsXgdJwju3lx444LF241xEm8mXYvXcUgQ3NiK9yeue1XxVPHbdkfBU3e/aez5pWnNU6bfWCy/4jQpwlFj8TqOSBDc2IqX7zLQ33EwPNR+jBuHwc5qlARHjZAuWLyOExry2Ip31KQPHIwzSnLjhhBuxOJ1nCCcBS1eJbZxRQluHBGyTbF4HSfIZ8GJV0ltnFFyG0eEZBUWr+MEEU2seJXE5hNKbuOKEGwZFq/jBEFNlHiVwOYbSmzjihBrHRav4wRZzXvxKnnNR5TYxhkh1SZYvI4TxDUvxavENV9RUht3hFCbYvE6TpDY2ItXyWoSUEKbDwiZtsHidZwgtrESrxLUJKKENu4IiXbB4nWcILs5Ea+S0UJACW0+IATaFYvXcYIM7kUISo6RVBymPUpk8wUhzkGxeB0niGFGvKZ/lMjmE0KafWDxOk4QhMXbI0pg8w0hyz6xeB0nyMLi7QElsPmIEGXfWLyOE6Rh8Q6Aktd8RAhyWFi8jhPkYfF2QMlrPiMEOSwsXscJErF4G6KENd8RYhw2Fq/jBKFYvAIlqUlByHCUWLyOEyRj8SYoUU0SQoSjxuJ1nCAbizegJDVpCAnOBRav4wTpLEjxKjFNKkJ+c4nF6ziH7Vw44lVSmnSE+OYai9dxDrvkxIkWr5LRQkAIbzy4NIj3QovXWeA57MITJkq8SkILCSm7ceLSE/Y95MLjLV5nYWfxe9d/TglsnFHCWehIyY0jl5747UPfs27TbPVznIWZxeevu+GwnSd+VwluHFCSMd9Dym2cufiEfz/0nLWvmq1+jrMws3TrutcsuuSE+5X0Ro0Si9FIqc0DDr3whK8s2rrmV2ern+MszCzbuvanlrx73beVCPtEycN0QwltvnDoeWv/atHm1UfOVj/HWbhZunnNxw+7VAuzCUoOpn+UyOYVl5xYLN6y5rrZauc4CzuLNz3/aYvOW/8fhwb5qgZv5hYpsfnGpScWh+1Y+2+Lzn7ez85WO8dZ4Nmw4fsWb117yWHvO/5+y3d8kAKbjyDd89d+Z9Gm1VtCbXvQ/krnOM4hy7cd/7jF29fec9iFJ0gJmNEgxTWfQbrvWc8Uw/TybauXzVY3x3FmctHLfmDp5nUvWrxj7Zct39EjpTXfQbrvnpHunyza+LwfD7XMo13HybNowzN+bPGmte9YsnXt1w97v+U7CqSwJoFLTigWnbfuu4u2rvn04i1rj2U6a7aaOY6TZ/m2VT+ydPOaNy3dtOYri89dXxx28YlSGGYwpKwmhEMvCtLdseY7izYf94dLNh33xEPWr3/wbPVyHKc0N6x/8LItz/+VJVtWf3LJ5rXfCgL+7mEXhgZ1SZCGb74NhBLVvOfSQBjhHnrB8cWic9fev3jL6n9bsmnNZcu3rXtYqE2eXnCcNlm+7dQw+l29bvHmNbct2bzmr5ZsXfsvi89Z9+3F5x//3cXvDo3sfWFkY2o4vjhsEnlvOP/vXs90wv2Ltq/5xuIta7+yZNPqzy06e/WHlmw+7pmPPP81PzRbjRzH6ZL9Al7784s2r3n1kk1rN4XRzAWLN6+9yDRh9cQS6sGFizcdd/6izavPWLxp7amLt6x7zCPPf4aF6zi9pgiXjRue+v2HbFj/g8bMcNHLfoCpqdka4jiO4ziO4ziO4ziO4ziO4ziO4ziO4ziO4ziO4ziO4ziO4ziO4ziO4ziO4ziO4ziO4ziO4ziO4ziO4ziO4ziO4ziO4ziO4ziO4ziO4ziO4ziO4ziO4ziO4ziO4ziO4ziO4ziO4ziO4ziO4ziO4ziO4ziO4ziO4ziO4ziO4ziO4ziO4ziO4ziO4ziO4zjzMN8X+MHAfw38t4QfCfxw4PsDjuM4zoD5ocDhgf8RWBc4LfDywKsDr5nllYGXBk4JPCPwqAByflDAcRzHaZj/Enhy4GWBtwTeFTg7sDmwJbA1gX/DpsBZgTMCvxVYFVgSsIDHN1zB/EKAc5Xy9MCigOM4IwiS/InA6wMbA7lkmxJF/PYAo2BGwM74hWmi3w1wrlLeEXhEwHGcIQbhLg8wjcCoVsm0K0j4rYFHB5gndsYniPcNgfycnRl4ZGC+h3pNnXuwgJ/7asyZk1DxfjTwi4ENgbwB9gmN+WkBGrsr/HhkUsXLFArTXD8deH6AAcWbAwwAmDpjKuykwM8Hjgxwk7jpoICrt2UBBiqRhwQcp1HiKHd9gIaWN74cRq5MP7wz8KYAl6hvDDCny/ubjJR53ZqAK+p4ZNLES50+IvCswO8FmtbJFwWeFKBe1g0KfjaAxGkHkbUBx2mUQwOnB5CpqpARbqyxcuE5AW7EMIpg2uDhAVYwMCdMpf2VwKkBRFw2N0xDYGWEb9yMRyZJvEwf/EzgVQHmqfNjqoN6fkIAcVfJlzaAbNP3Mnp2nNr8QIDlX1UVlBUKLwj8ZIBLK9bqUrlVqKhc3iFzpMzSM27QpJ+HjLnk49LOc73jkUkRL/Xv5wJMJeTH0gZW7rw4sCJQJl+L1+kUKtRxgSrpIk0qGHNfZbItC1JlHuy/B14XiKNfGvhRAUt3fDIp4mVfy6RL/WNKDKEyzXV8gAFALs8I7eLEAGWjYvH2Hx6+4hw+NgFXMJibmDwxQM+eVpwUbrIxam0r3DwI9scCzJ9RUY8JVF3COaPPJIiXq7ffDKjpLZZFPi7AcfI6GjjwYBDTXcwFc2WXv4/28YSAGiRYvP2HuXU6R6Y9I3SU3CCdiBwWqLocY90tT6r1GSo8UxXO+GUSxMtUGPU23X8kzL2ExYGqzp7/4z4F9yXS9wNXa2r9ucXbf5iifFsgLdPfCCwNzPsgQG4eqCkGKiqrFLix4CyczHfxMiJVdZobbG3qMpe1seHTFhgFsyqC+xF5LN7+M9HiZWSQH1yExucHHBZe5rt4mcp6RSDdd6YJfjXQti6zppdlYi8M/HIA6arpNou3/0ysePnuhZMDarRLI+MBiomayHYaZb6Ll6kEvrAp3XeWhTHIaBseJOKGMBKokrbF238mVrw8d/87gfTAIi8JTMSQ3mmdSRXvTwW6pMnNX4u3/0ykeOm9fylAhUwPDLh7yGO88/G7dBnF06EwWl8d4OENniDiS3keH2At5jCmTrgjfnSAdaPPDrAemvXOPGDCU01cog7j6oFzxLwl22VbHC9PHT41wMMsXbbZl3gRFjduEd6vB1iORZnwuC51jzLhHkPf4W44D/ek+85Uw68FhjVt1ka8rH2nrrA8ivKkTlJv+wzTIazQeGiA7TBlyA1yRvDDWEVEPWS1Adv78QA3J9kex9p1e8MSL/vKZ9A+0nNAGx56qPCs21WPT9LoKLj5Ek7sygCC5U42N0FoaEyhcHzA3+lQ6GiY/6Ny9NHoqeBIjyVKiEltl5/xf7yGDqGPE0xD5clA7rJzTPl2+Xe8GcTrqGxIGOHRKeSk+9SHeKnIdACs/abcy8oEQfKUY5+dPOeEOdl8KRmjYOrJMFInXuooAwI6RsqEY+f8AH9nuSad0sMCgwT5Mcjg/LE/fDblH7fDzyhz5q4H/XbA2O7oSPm6AOphuj3+zXGxBIynB+vaG3PztMsIX0FLWaVlShvie8DT18FjAlVfOUCHi2ipk8i8bF95apf6OKwOeqY3YS1telARvsCc/x/3cOJ5mOO5AQpRrdksg8ZP4+R7KboUMo2bETQ3Xtpsl9fSOVB5usiGY6ZxcY6QmNpGDtuks6GR0LjVa5BtTFfxsm+MqHgggfJtWi4cB5Ki4fEZfYQRP40p3w73NBgJ9rWdmFy8HDvlwHbYHuVOmaT7o0AEXDExUmwTOlXqFMtCm5Q7r6F82O8uV0XsH1cxiLHp9vgiIubZ1c1JwtcOcI54baTss3KQJnLPQ/kzuqXDo2x5rfrMFF7DChjaS9/1ZOby9LUBtVGe4hnkspid7RMVTh6j8rJF8k1hrSYVNhVPVZA0ozlGiU0aUhnsM2tKWcvcVPycEy7b88uvpjAq4Ru41P8NKl5GM1zOMiLpej5omIxe+hj9InF+E4raF64SaKQIkf0uq2NtkosXgTDVRXlR5m3KhKuBpl8axb5zHIzkmnbEKdRhlt7RmTcpB+oqUwj8MoQu55ljY0pMffEQA5mudYcOgIdb0vD5XEFQJ9V76mApLR1FH1fGD4QKQUPMN8aJeGagSzhQhE6l7gvmAfMTxMmnQLiMzve/CxwzFZcKXBVkT7kh+y6VPIfPYM6K+b46+SLDVQEui9RnDcog4kWUnCve07XhRNhG16uBPMzfld085pwz8GDURl1iVDRIA8vFy+dzbpneSMuEc85IE1HwZ1k94jwzJ10190u74PI5v5EY4bMpT7bFvpWN+NhXLrEZUORtLU1sdzxNln9G/Jx4yc6fSFa9jv1A9nl761u8SJcrUvV69oErT64Q2F/KW20b+TL1UDZKbx0qpRo5sQNUoi5h56jIHAgnelAoTKYRcimx72UnP8Jx8BoaHoJmn6pOKpWUy1AulctCp1L3pfBUNkZubBc48WUVEKisTPlUPcXHSJdRAo1IfQZwbFQkKgqwXSqXeq2iq3hpqNxQqRrV8XOuLBiBMuXBZVzVJTH/x8i3SgJNwvuZ+0OwdfvGCI65Si53mWZru2011UAdjHWF80zd4dcnHRtAMsy9829+zv/H90YoB8q2bF/osCnT/H2cd8qZbwZknpRtISX2kfsgDLjy8mD7yLCq/rOsTrU76gWroLghz7FRhnwFAfcz+Ex1rtlHHs1Op1Q45+wbdRd4X97WeB/eiq+JcBWDIGOYv1YdEm2EMmCOm06EY+Iqks6em7/vCOTvYU68blDWKJxInlVHRvlGqCzche8SxMv8lKpEXWHuL+1tKAAKWb0WkBwnm5PIk0dcFiFMRgbcBCu71AaOncqjRp/I73mBql6cOWMqON8/wXaBxkFlZPRT9l5+jljVvB7niv2mwqj3wm8HuGnGzZt0uzQ4bmw0OR9dxctNOaamyjojpMYVFPvGfDojSzoZzgcNTx0XjZRpGFZEDBrKj/IoW6+ewv/T2LmiYZ/rRoBpcvGmUG48vMHxx6kNoJ7xb8qEhzPy+kE5MOWgRuKIhfqWlzv7Tx2mjHkf24jbox0hVuon3xSYvze2fTW6o92paT3qCdJiCV++Pa5auAdDnaEe5u/l3NMxxvZGvaPesn+ASHNH0dEgyviaCFfGaR2m/efnG0HTJiiD9Bhj2TA9xaAur/vImM9TXmgdTK+eRR838TKXGguJAqIiljVyekIKiEqZF1KsCMxlIeayz4iT6nloNKo3BKTLnWTmrVSl5WeMohi9U77qM/hsKh37mYb9ZfSSV1rgGDgWBBEbdBq2S8WnUbOP+ftTuoqXzo2f568F6heNhMvlfN/4Nx0N+6YGAPyMDquPys62KAfkSOPLt5VDWXOeeC2dQ9UoMKZMvLSFVYG0fFXo2NlW/n7Og9o+ssvrI/9+SqBu1Uws+1WB9P3A1aFa7cCVbF53KR+mmFTHkIbt0TboTNP3U85c7ZXtr1pOxpUJHVVdGMikbYa/cwVQVzbUN9ohx8r5ZAqSQULd+xqHnobeMT0ooNfl8qdLhiFe7kbG+T4KXHUWwAmiwJo0VEZS3GVWMqPAuQzJP4fRbv7aCKOHuspHeA0Voqx8uNRJb2pSYblcY74sfy37zuubXBZzXhgRl3U20FW8LEnMXwdsi6uquvOBVLhMVeeCTgVh9hXKgZEZo9mqK4gU2gONnVFzVcrEy3ubfhkUwss/g3LM348089Eu5ceoXkmzLNQ1RrHp9vgcpgrSOhVHu+nrqMPU5TZz8ZzLXKTU7bKyVeJtuo43X07I/jL9QR2oC8fOlSsDMDWgGSjMHdG7pQcFnEzmurpsbBjijSNe9mdVQF2u8zMKqkmhxlQ9tcelc9rgqaBKfsBlfirLunAiWQqmRIP0qWwxSInGpF7Ldtus+aSBILj8cyJdxMtxl412EXJZOJe8l1UpVVMwzJUz2ui14ofweYxgEAyjMEaK1HtVzpFY3mX7osTLcdFxthm1M8JKPwOYi0y3S7nlbZdj4DK5bbjyTQUO3GhL95m2lQuQc9NEgHkYAOTlTBmpch1EvAyU0u3w97qblWn6rnMPhF6US9j0oOIOIjs131gXThaXQNwsYEK6DWr0DXGOF2HxOtU4GL02uRxMEzuJ/PIJuDnFJXQM0xf5a4DL9/R1TcP0AQ1FfSYNOJ50Okf2JX8NDZpRW5uOhnBFUCbKLuJl+Zg6H9wgyesPdYPRGNMiTGUxgqrqoPlcthcf/hhm6GTZDpe9CKWsI6CjLrvZpcQbX98mlE36GcCa5LhNypHpmfw8xq+rpJ20AYnlN8w4jigoyh6J5XKmw6LzVJ9ZBXOx+bQXN8FUXR5EvHRCef1i8IT4eT/1k20OTbBl4SRxKacaDjegKKAuiZJsA4XAmsd8XzjZjJyobHQUan6ORsKEeVsJEaSpltRRqdPLZKYS8tcAlzPxNW3DXHXVZ1IhGGmojoHpFm4otA3nnNF2/nnQRbx0XPlrgJ/HCs355VISoTB6L+tgU+iU2E9uSHG517WM2waRIErmWhnh5rIBBivqDrcSLzeU2g4I6MzSz4C0PBmpq/sciJd52LYwXZCfE4QV6xc3nNRDN1w9qc+rA4nnnQZyVeU0iHgpJ8o/fS9QblwtcFXLTUiuevAAx0ldHXoQFRVbNWwqEMtQRlXhGXEwl5vvB1JdFaDSld0MRJyM5LoE4XMzTQkfUcSRVtmUBKsNuvaYZaNoOhfKnfPDJZgaFdLIulyRULG4Cag62y7ipRHkrwHkgcSYJqBhU8aMNtR2I5Q522SpDzdsuCro0pn2EcqJfVc3Yfm3+s4HJV46mrZtCOGlnwGpeBFEfpOqbzhPDGYIVyj5/G7f0M6Ze88ziHgJN8S5Sk7fn8K55CYuA03KlEEebQ6fDFXCyEyN+Ch4Kk063zjM0OOoJWI0VhohYfSn7n5TKSjgLqFh0yvmjQs4AbHw8wYVYZla13CDT30mHSGNFenTMarXMOrqcvnN53LXuy/xlq0QYBqEy3ZGFmWX7RH+n8ZBJ0Y9YNtdO7O+g+SYdsv3mbLJR2hKvGVfklMVGn36GZCKF0GVXbX0CQMvUtY2+0bdgBxUvJQZV+68R7XxFNoEr+EcMtDivHMuhlIXGWmW3ejhri9ibttjtw0HxrIhNfKm0GNPyB1JJV4KldFR19DTqZPCXFAUb35pFBlknSkjVvWZzH9F8a6a/VkO56zLeeE9CK4v8ZatDOB1ahsplDnHwVpNlhp16UhGETrXvN6x7/nc7ajES10vu9Lok7ikFPF2feS2DcMQL6HcKDPKUPmjDK40mW7ixmbvV17s1KpAmVgYtdDrDzPMxbAsSm2fS9Qov7IRLwuq1brbJqGxl3U86Yi3bEUDKyO6hks49ZmpeFl3qPat64iXCqTuKkMX8VIx89fUwfFx15zljExHDLtjHzR0kGoajHJMM9fiZTWEmlPtSrzHo8TLOWSuVr2vK33P8aah7GgvXBlzFclVMgO9JqNgbjyyiqT3esqNgrI5TDbMmt5hjkaQlxrtwqpADPOG+UkAftb2znEMglGPutLbpXfT1ZcJAZPzsUG0DVMo6jO5POckA9MCao4X4XWd42UaIP886CJebgTmr1FwDKwWYNuIo2uZtQnlx3EwcksfJW0b6gBzunkdQXRpRiVerg7ouPLXcHXKa/oihhuj+aO31AOuRNX7uqLSl3jTxO0x4MMpdCB0LJy7MhEz0Ol92pWdYHRXNuplDo4HCpquf2satsvlRdllDJex6aU8HYR6TpwGweVzl86hTOachFiRiXqiCNIReZsgBdV4gMbK/7NtbnCo88LIn5s/bcOogqV++edBF/HS8eSviVCJOYc8QMB8IduO5TnM0KDYR27ScW6pH3SujK67hKsElnONi3g5PlbZ5PuzKjCMKNGzba5Yhp1hiFcFdzAg4BzSyeSDHY6XgVjvUw5Uyqrn7ZEvPQMH3Efj4UARW9n3JnDgqwLptnhP2Y0wZKLuilaFjoRjVjd/GOGmT9MgubyiA/vCcpS2QQz5WkZgG4yE43GX3digfLgDSyNsE1ZSqO1CF/FSRmpEDozKOcdt9pHKP+jUFqsC8ikQ9pGpqi51l45VrQRhtUaaUYmXxq9WIzEI6DI44nOrhIIbWOqZtzvaThcR1W0vTR/ijVc+TQdI3Pei0063CUxJtm1vjcJBqnVvEQqetXv0dF1GlzFsh7lLNXqNcJD5nA8njJGTEgfyZFTatGA48TRELn/zz6KB8eRe+uglla9sZI6g2qx5Zp6p7Gv8KBNGGDHsAyMr1dmw3TZf3IHQqpYFdREv5UiDz18HrJZhHrtp6DiZumDNKMLu0qgJ5aceB6eTVzdw6kI9zJck8dlxuVXMqMRLOO/5aiTWPudPuDUJx0d75DPV9BWfx3RNfn+FFS0MDNqG80xHxrxpXXtV4uVcNDmP1B8GBkyV0klwddu0bCiT/EqT4+0yvdcojDjK5jMBAdAgqQg0qqaNntAbIzukWnazCqrW5dIbld3QodKvCtR1ChQ+J52RZN44gROdP6tOmM7IXxthDqjJkjbKjM5LiRTy+XT2gTLLKx/wGdxYZDRedx7iOumy7UIX8RJWpOSvizA6UQ8b5KEhIV1GppwTts00Rtr5NQ1loX77BJ/NJXrbEbXq7PnsfNQ1SvGq1UicW8qw7ZUfT5pyXml31E2mFfNBD+cn//pJypORYZtzxDHwRVGUJ+eYKQyu8MoEzHHmSxa5B1I30OHRbpbDMlji2NhX1mQ3Pffsp+pohiZewolXjS6Fyxx2hNUISIrGRYVnhyP8m14H2XCTiJ6Kg6lq/FRcPq9stMPnMtdS9hkUMieTisJr8/C5LEtjZKk+g4pM5eWE56H3LVvPyGchX6Sk9h2ZcoNHzR9F6FBUT44Ey6ZY+BnnihGJmsOkDKiEdY/nQlfxMsJU3wkLbJPyZOShzgflwhUUdSPfP+oCI5W2IiHUR44571jZf6bM1PnNw/5yztRDO8xb5x38KMXL32lT+fZol0yBpOeyKnTaaadOefGZPLWZbo+2zBVlPr3Ba3l8ucmVJp9HPU07ROovV51lV0YM1vJH5tkHHFE12OBme/5IPtulQ24y1885yNsbbbfv+1wHhAPikiXvaRTsHL1X7DGRD5USkBSVlv9jKiBvBDmcRKRaNxfD/5fdmAL2iUKnx4t3tDlRVBx6wLI5TuB9XHKllS6GcmF0kFe+CMfHyWXUwM1KKi/bpkFSHpRDWRnwf1XfnITs1LRIhGPi2Fg1wLlj24xckB7HVFf20FW8lAvnjf/LXw+cDxo3EmL0SJlQxpQlHQrnvWz/qFPIQZ2PqvB6RlJqnTGCZyROh6TqGucA2TOvmY+agfOvLltHKV7COVKdC3WBARGdeJmckA9XcKp8GACoUSwDD3W1SXlwv4HOTp0nfsa+0v5UHeFKrErctPX8GJEgnXk8PrZBRxi3zzlU7+N8Mq1SNnLl/Vy5qlVedGhN54k7hwPie1QZ1jdptIOCHOjBm/RGhBGL+vKYFPY7R70uwv9TwcsqK+FShcaU94Y5bbaLCKi4daMUGnaZ3CJttpvTVbyES1NGp1Wj6nzf6vaPbTGaalon8nAe6YjUzVNgXxmpMwKm42BKh7nHqk6Sn3F5rfZp1OIl3EhUI3L2Mw4+mItmWoTOhM6GG3N00qoOc9xVc6F0mPkxAtujc6WzYn6eKUu2x1JRhFt2hclggmmDsu0ROmpVr+g0GOSwTTpwyjqd1uLvZWWDWBn9Ilmu2OhUKHemQdSzAhxz3X72Gp7a4ckudkZVxEHhZCBQRnv5pVtduDzhhklVY28KlZTKXTbiTMNIgt60auTcFD6DCtPkCThOOiJSlakpnMOy8hpEvKTPcmE7CLGuM6oLdQr5qpFdWxA4DxTRSFXmQrwE0XFlUNU++b+yDihCGXEMVR0d+8BIWd1zSKFdV22P/eGLebgqqWv3jDJZtVTnH/aJwWJaTkw5VJUNbYG2z3krG0wxoucBj6FOM6hwIug1qUT0UHUF0AQOmNE0Iz3k3qUn4T28l/3q2jEgCU4qo50m0o1BlDToqpUZdVBRaFBlDVmFURwjAPa5riHlUOaMEMpWVAwqXkK5MMKpE0EZvIftVl0Otg3nlQbJNFjbMgP2CUkwGiq7nCZzJV7CaIwBUtk0WBUcHyNApuWaztVSB7uWJ4LjBj5OaXrpzuiZm4lVgyw+N1+NRJAv9xC67CtSZoohXWk08tAQKHBGIpyoqkIog4rJCePuPQ24jzkTCoU760ilacVj3zn5jCCr5sKqwr5zY4gTg2jUdhR0XnytH/OwXS+j2Wcui+m8ynrqFGTGJSbzYuor/qAP8RKOie9CpVNtcp8AaPwcC9LmUrdNJ9g08XFR7j00rbscL6N4xF13934uxUtoB9TntsfHHCurfNq2Ra4429RB4GqNqRqmSNqeY+o87qETLOvUOfb8i6soN+o9HWebgSPz2dwnGXRdeS/hIKiAHAiVkQrBjQpGfuoSk8lsphK4yYNsaVTMN/Uh3DSIk16Rz2ckSg9Hb5UWMj0eMqGiMadHxekqvjRcgtBYeHYf+VMx0orIPnDCKQPmsemBB72EJmyXdZTcyGOOK62Q/MnxM1/Jsixex7HSeSKSuG/pPqb7RKNgPynPFKTbdPkQr+MzmEujjjDCz8uFDouOgBtt7OOwL+cY0fG9HozumP/MpYGwKEfOYxwcMIpv0jFz5cKcZlpeZXfrq0IZpJ8BTR8Y4BzTNjk+6jn1PW2XlDlTCrQPpMnxsd91Ui9LWgep33S0aXnyd847559OgTnmfKlam1BHqVMIEYFTd7j641iRclkHyfHxXra/KsD+0CbjfgLlFP1A+VGOfXuql1AZKXhudFE5ER87y11oTkac0OfEUthUiq4nuGn4fBoXvRSXhVR8ThSNjQl/9oUT0HY+uUk4SRwnZcG2OMmUBX/nZ/wfr+m7DNLtUuYcL70+x8+5SSsPx64eeKCDHJb02D77wf6wf5QLxHIZ1vmoCttju9QH9oOOkzqbnqtR1NdhJT2+2C6pF4z6OQ+0D9pJX8eX133KklEto1R+xvnvY5ATw/ExiOAY+Wz+pP7WjaI5XvYjOov9i+2F/R6mH4YeDm6cKuxc7ctclUPVdrkcVTfnGKmkgh5m5qpcqjKO+9R3Rnl886k8F8K5dwYMVxmMGrkMpoduG0bgav6PeXdXPsdxnNkwEuVykQcjuLPLDUTkyc2CNpdvSFt9+Qcw/+Y4juPMhkXr6k410wOs5mgiX+a+WDKnVn1wJ77L6NlxHGdiw/RA2VN6/JyVElUrDbgJwYqLskXv3N2flzcTHMdxhhWmGlj6U7ZGmeVBLCeLS+S4u4uIuVPLMi2etmJpmXovP2eFgeM4jpOF5S/M76ZrJFP4ORJlbSJrqoH1qFWPQvJzhN7nMh/HcZyJCusvy76LuAuMklnL6DiO41SEm2B810J8Qq0LvJevE2QqwkvIHMdxGoSbZXzXA3O7ZdMICoTLdATfH8ATO47jOE6LsAqBrwPkO3BZaoZQ1SgYMfPNbbwG4fI1fJ7TdRzHGSCsYOB7BviKPZaM8e1efCsYX4/HjTOWmvHbN3iNhes4jtNzeDKNLz5hKRnTEYjWc7iO4ziO4ziO4ziO4ziO4ziO4ziO4ziO4ziO4ziO4ziO4ziO4ziO4ziO4ziO4ziO4ziO4ziO4ziO4ziO4ziO4ziO4ziO4ziO4ziO4ziO4ziO4ziO4ziO4ziO4ziO4ziO4ziO4ziO4ziO4ziO4ziO4ziO4ziO4ziO4ziO4ziO4ziO4ziO4ziO4ziO4ziO4ziO4ziO4ziO4ziO4ziO4zgTkEMO+f8B61Gr7hessQAAAABJRU5ErkJggg==;clipPath=inset(13.33% 27.57% 33.33% 28.33%);" vertex="1" parent="1">
          <mxGeometry x="1190" y="138.59" width="76" height="104.83" as="geometry" />
        </mxCell>
        <mxCell id="IOINTAL6Y3XgF2sGTh_A-38" style="edgeStyle=orthogonalEdgeStyle;shape=connector;rounded=1;orthogonalLoop=1;jettySize=auto;html=1;exitX=0.5;exitY=1;exitDx=0;exitDy=0;exitPerimeter=0;labelBackgroundColor=default;strokeColor=default;fontFamily=Helvetica;fontSize=11;fontColor=default;endArrow=classic;" edge="1" parent="1" source="IOINTAL6Y3XgF2sGTh_A-16" target="IOINTAL6Y3XgF2sGTh_A-16">
          <mxGeometry relative="1" as="geometry" />
        </mxCell>
        <mxCell id="IOINTAL6Y3XgF2sGTh_A-40" value="Google Looker Studio" style="shape=image;verticalLabelPosition=bottom;labelBackgroundColor=default;verticalAlign=top;aspect=fixed;imageAspect=0;image=data:image/png,iVBORw0KGgoAAAANSUhEUgAAALsAAAEsCAMAAACsWjIXAAAC+lBMVEVHcEwwpU4yp1IzqFMzqVMzqFMzqVM0qVM0qVIzqFIzq1MxqFE0qFMzqFI0qVM0p1I2r1Y4tVk3s1g3sVc3s1k1rVU0qFM0qlMyqFMxplE0qlM0qlM0qVM0qFM1rFU0qVM1q1Q4tlo0qlMzp1IzqFI1rVUzqFI0qVM5t1ozplE1rlU0qVM0p1MzqFIyp1I1rVU3rkQzqFI5tlo0qVNWbqk0qlQyp1LnQDTpQjPtQzbqQzTpQjTsQzXqQzTrQzXmQjPlRjdGf87pPy7qQzTuQzXtQzTsQzXpQzXwRTb3Rjj6Rzj9SDn8SDn1RjfrQzTsQzXtQzXqQTTsTizrQjXwQzXyRTfuRDbsQzXqQzXrQzXsQzXzRTfrQzXrQzTwRDXpQjU7vV3tQzXqQjToQzPsQzXvRDX/STnrQzTrQzXqQTTqQjT6uwP7uwLpQTT7ugH9wwT/zgT/wwT7vAT9vgHlZCLrQjTtQzX7uwT/ywT6ugL7vAT9vgT9vQP/yQT7vAP2Rjf/xwT7vAL/wQT6vAT7uwD/yAT7vQPoQjT7vAP6uwP6uwP7vAT/xQT7vAL6vAP7uwLqQjT5uwP7uwLrQjTnQDP7uwH8vgT/vAP8vAT8vQI9g/U/g/Qze+4/gfBBhvZBhPRChfVBhvZBhfRChfZChfZBhfRBhfRBhPRBhfRBhPRChfVBhfVChvZChfVBhfRBhvZBhPVBhfRChfVEiPpGjf9Gjv9Hj/9FjP9Fi/9Eiv1Fi/5EifxChfRBhfRChvZChvdDiPlChvdChfVChfRAhPQ/hfZChvZChfVBhfRChPRIkf9Dh/hChfY+gfJChfVIkP9Hjv9BhfRDh/hDiPlBhfVAg/FAhPJChvRBhPRHkP9BhfVDiPlFi/1ChfVDiPhChfVBhfVBhfVDiPhChvdChfNBhPNDiflBhfRIj/9ChvZBhfVBhfVBhPNBhPRDiPlChfVBhfU+ge5ChvZChvZBhPNBhPRChfRBhPNAg/JBhfZBhfRCh/dDifpBhPOoUvGqAAAA/nRSTlMADDZbhaCyxXxSLgcocrvv////////46tfFT/2///okf//lx6M/WjL/03u0v8xRvkD6f/yAdksFCo/UFxrZzglEQIOcarQ6f/////////6yJswCVfh/////9ii/9+P+0b/uLMaefX/hJOWimGaklf7///rFwTC7///pP//Ov+95v9J/zEP/+Wa33Ww8f/VacqVfEpjIUL3IxyFCxADBh85UG2Imay4ydLe2eTn1b6wGT6W8f///////////2sqXu3/////JhbP+ZNZ///rDYT//za53HcTHENL/3vp/+HMw/Wl8Mb/zvho/5CfjHFV9amiCJ1/ImFltEcuMv37W1aJKUkAABMcSURBVHgB1NeFtuowEAXQwR0ykRZJIMVdrv3/nz2XTrA+vcNejp7OOm0S+Ddy+UKxVK5UyqVqrd6Ax9FstTsCUSohlEY0UdztwUPoxwOUxrofrEE9HDWBvXxZoHdnTDIYT4C13HSG1l3kk+EcGKsvlt5dJTDmW/vVWrtbbLLh2vrCTGzdbTjMM41utu6OrVrvgJ/9gU79sq2MJsDNZKi2LoMtVo7ATBu3LpvlFHiZo8vKz/LASe8kXGa6ApyMnlzIColJgtKcv6NrwMfk+SyhUlFcbbWm7Wc8e08uXoCNajD2rdGVWu7bdVVP4RbHqj5wcdwoGl0cWqnJTuJwZ4kl4CJv6GDFeg/EFIMPnHJsKoP0IShWEChhUJo9MNGWtBFTCDVeFf1IEXjIReRJYi4VoiZJa2QbeHhz/u5Mj6+CFP61ASzsRXqm1uThgilpvHnuAQtdTWJFObigptIX6LdNjvswtYBL8t6ns9s8y+yVyzfFlmQ3/Qee+w5YKEj6iOzd/hDtO6/njL5YhxF9znR6wEKTVDlpX4rViOjzfXPksq6KdPRchjOhLDPbz9yI3qNjd1hlto+k0YlysI8UfWBi5/1H3syBaW4oCqCp3SZd27ZtBS/r3bzP3vr/j8u1JpnM7RnFOeG7OKr+ZisENpHbYy8cmWwuXygWS4V8uVIldqnN8ybvfvXQi+2kj7L/D+16rtFstTs0w3IcYni62+71S4Ph1lbvqL9VXs1GcKj7d8/19sj8c9gK12DJjJrjCWJ5eirgfwjTCYOQcNLPD7fLM0avprZR0DZ7nlksmpR1tw2iBI/ec6dtFk0EvMv0DDHnFwNixdO4Kb6lHlH86ZN9JK2mbazAGV9y1DtDND7MhLtsXq394q+31A9XhYMU7G3P91hGwMeZsvxNeTn2iFY3qQyQsUz2lmGwCASW7t8Rc8SqG+PvANXvH5CARdGZzsYFaeomG2A4ULnh6A4WS4dnT+sS1INUAG5YyrcRloQwO7kTr65MwbVsGmd8R6I71x9uJNVH1E0UoPonREtW/0yIVbd657E9BF+4KZanrlUcVlcoLHAVpa8zQaY64fZTqv3mpC3lA/w3Ijl3fY7DnrCRxm1xo8JmfgkY944Y6eoX+9LXpykFRVqX/kbr79nAO8jkevBw1pGpPif5yGdPRRTUHIXB49RHCcAW07DFylT/9n09VXr76p3lmUbzzOn2gTfhf/xi1j6UE8ahKIDeP9qW3ivBRk7HiNQJNT0hocWOs6xJ77187fZlYJ5stE3mfMEdzUV+fibzLwuzu7e/i0B0L/qW3YwamqYZ4ZhP9Fzu4BAByI9r3o2JMn0yNF4oFOJFk+lhr+ilUvkIARiNeM+52tJ0b9dQG4B850BfosgMPiGKbll27hjKdYaiXExbXGt8NUVyNM4MJoj+K+cEymUzE+LxnE2tgtxus30/rgujW3blJyg2Ij72CWMllYdIpzh6EAffx4TRtdAq/NDolu1WodaUJoquz3dJR68pb0OpgWhMdOrzg3LR3brolntwCpWWGaei6QHpU693tguF8nGDU3q/9Kk3cI6g0IwZE5Q9IR29kXuusjSjjBNmugvNVd1aYWps9xjqjOmcYBdoru30MmcRzhWUaYsv0mNf6YKMK0eQ/RrKJCfp9KsVIOXwxiXZb+/yUGVmMUYr0wc512cku3tzCFV6GK3MZJdk3+5paWy7ClX66E91cWkWco5dm4TPqZslszS7tgZKuvBnW1BlncnfkET+jt6S5XuoskGzR7KQ9XAb5AX/+K+yn1Ro9qdWyy5/7uWrIDvDHluu7/L3TAKSDg9c2pktqDJKsxvxPORUbcH9/gxV5kTP1UHIET1XrSpUGTA4ob9AzpET6DwjmiN1ucK3nQrqnlM4R+aX6PweTr9CxpZjEWfXUCchem/ahIRv724tovwEdVKME+FiUubYzyzCzr1BnW7RaoktoCnyuqp+uTQrKDyPaT1oZrtsKX5dpS6YaAccem3WmIotyr4FlVbFq9TxEfh523MtgtzuwSz1JlihE96q72SvRFZ6KqQiXISNd8HTx7trqb9lqGQxzIW1KfbC07ZjUZUHqLYTEX9vWtTGuv7OisB2dqHaazrMhWIsPT0AsYeK4NjzUG6Tfuirfeozp1IDQ1LDjF15hnpDIYN7MTUWDk0lxrJoRIbIknONIPTqMe4tFtb0SKa7yXPVff9AIBLk59p0xKnu2WRBEIhkyGgS3iSz5clZfWPKJwjKqmFyf5EUGu2e1UW/Pf9EYFIRWnn/9cFs3RDs7h0jQBcZ7k9bRaOvci362RaClB9rEl5PeA01tnOFYOUT/uFN8gp+7fxx6s4XCPUnTzvvt2R9vrUtq+SeXSF4beu+f2YmH3Pyd7dW6XZvCy1hdEXzCa/P0S+s5fM3tIa27iWf3uhraPT5vn/yiZbRuaBp3IO5MoNG219oKT3xSJSLsWW0uNlUKCNOHw2NoNUls/NMM7n8elvgF+KrATeiAIgeqrZt2+4lGvcAGy2/bds6VhXUbfj3heMJBm9sbKxWb4x1toGODK5s/9D+3MrfYc0WAEIwgmI4QVIUzZAki3M8AkMg0GqW2P7w/dTy4uLc7PZHFjJ/8pu7IEISR8qKqum6phqmZduOY1u2YbwpFJnkJFcUSmu/t7K6Mr29tLiwuDi/uLgwf7D7MPGTn+dLeGBpumGFURwnPyCOQsvQNSvAJT8tb2mu9Q9e3hw93t9cVk56v9PuDJTy4qVtJUr+R6QYulrkz9Xd90LbyvIH8O9D8QK8Jr33bmlle0mQNHQBFmAMMqYLOHQcevv97r05VTlkd23LkvP5N21ij1ZbZof5thnUgoVFlnSoBLaTZMZS19dRxG55gFPJbK7rU10LjYjZSobKknC1gflVxGp6zqTy2Jw5awsNiNGITmVzNH09u4Go5DYRtKXZVD477Q2s5BCFxvz2xDICmvsLVBHuLeUbUW3N7esZ7n5FUJZRhbi3096MqtraZWkibQ9Buf0EVSrFdttQPdNdhvH7y3EVQQeMKmcYXV9QHU3ZQ2bRd944gsYKFlXOYofZJlTB6pHHffodX9pAQP1xmkLgc+9oFWGry59o9Dd2iqB2RuHQTvJhZ/pwxvTpb0YPgjaWOIXCNzPD0wjRwpRLARYfQ1DnbxQWtr2AsNSfGSmfgtg5glYdi0Lip4yLOoQiN7zo0I8SEzMIOtIoNE5mbRQhaF1n9AnvEkFfXQoRW19Fxa6uDZ8+ke6tly9Byudr11eo0GWB+/QZq7CJoIsMhchP8UtUZMU1ffocu0HQlzkn1OBNdwUVmM/8PBxzP4egbpdC5WTmUa66W0807rEsgto0m0JleZ11KEv97aJFAoX+JgQU+1IULmvxFmX5tmiTiG1sIeguQwG2bVNl7MXx8nLdIjF9BEEt++b3rSNu6MzVte90nTEtyR2bymKVk/MrnkUS5sk9groWk66b3B/o6epcuXx4uNpaeHjMdpw/9Q76GtNTTlk5f4cStesOSWVWEPR8PXR7+TzdgB/UNb60rYz0WUznNpXI0SdRkjZukhzvKyKg/l607Cm+to8sGazU8BOJNpTg9TDlk5ytXaFEG23ng7rmUAn8wuELlG2saz6p0LtRuo2va2+MlzS3Wd+Aovpuj9Q4b19QjpezbS9F6rzuOqjpyNikyBtHeUaz6x4nVXamA0q2Co7ysn5xuAll2shve6ZPapzCFhTktgs+KXG87ctllC93duLaqs/rdg5y3UwxdKPwLYfKvK653FcLnnVDqt2zFT/0oS1U7nSb2aTC9i4hMX2dUPsOjfFlhOF+jallfeJ6GmLDahnjbl8hLNl3wyc53x2G0COzlSZ3e/cIz+Y6IwU2m4TAjMrOnG+yzmaEKTfsWSTHp0SbNueeLw+dF7IIWfM3zyEp3xOsolrfHYW9h5MFSJS9ISHh8DH8zJ7ryweY6y1UQ9aQB+9rPfiJK81WCP0Z1TFpmCRjux/4VPNQWp4w0tDLN6mwVEv3N+Mzj578MX3fQvXkmUUyn4+TRfkBr5P+QDVdyCffqYGGT19L8iV7HtXVlSEZdop/aZJnu3eOKmuYlY50hU8y/kq3ZfOJ3SKqbXqK+6UPNXsaifHDaVTfVdohsX+P8a2ySjVL/0AU5mUpbxXGEHTOZMl+i0gUe2X7K+wAAaMTCRIq7DQiGquySVXih0OLS0ZCltaGqFx4shQIzmOPDclKdwSRaehLU4D4iHHVtEjE3L9HdK40S1Lb2oq/XTDpZnWUhiVvKHaGvzRJpjJ8cANRkq2BCn3NyoN7JotodTESCFSRdHgkwgeWEa3XN4dEvA7gd3XHadmYFLUnVzbSqB2mJ6ZmELXNgqW273/KZHvskauTvHBYO35344r/jy+ImPzzdLvwXXEnRQLaHmIgqZ1L7RR/f6gdS7LIioFkYms5r79/PS4JJCZGEYfngq2wX3DOJEUDMZBmMrv9fQ6ZJAH3AfH4xsQjfJ102WHutyAebYYtTeUxLnpUjR7EZGYiIZ3SPLokwDoQl2GNBNxTAGdMeI9kC3FZYdI5/JMuTKsc4rKVFiW8/gSgVzTMJI8Rm/t9UxRZL1Bc4vJhNBb1wh1SvlRETjgBZvlava5mzuXwIlrv2Vob4tPBhJsFLxjTRb/h7RXxedRJQBvDlfCLmRhFfDbFA82VeBaZ6mtGfF7IEb+c8qLYkz2IUW7CFMWexYoodq0bMVoe5KLYVzDORDnVhRg1Ceu62TzmRbGzc8TpOCmO/ZsoZ1gn4iOZrridGDFqN/Y9UWzGSE3HPiyJ/VaXx16T+e6e1/SzOit5Vn/dMXL8F343dfzCc4I8Jmt4LuYL52KTWBAutWt5DryAzdpdezzoJKBv4oX/oms+/oqWOWFSxbrWFj2KzlwLGpYSv+QeR2JpGehN1+jeUotwbyk9JNvTM/dj3dOTvTbnf9G91HEAp7W8hy05cNoUnx3sISajkrODTQC5GjyzkVeFJ77HVSccaEh/RDzOmUI1xK1LAu4TYtEgbjPBbiRtbyTTsRhHSGKXku4rcZ7J3zJpuZv824mnFmJmKiGuYFtWmPOQE8s8eJKRiP6k1ueJxVL7kyaFdAe+vDnip3UmhioOiwSsv+qR6nsltW53iFq3K7lu0yQpSw08GJFqNS3VwtQxSbsDlq2tEkP7Hz2HmgUbUIEWdBEZk9TJ8p0G/OVMVst8gSjJ7p6wefytlUtqyK+nEZ0F3VIuB5aPND57QmQadwoklB5qKqVpqKVdISpnGRLz8qU1DeWDMzVS/E7mXAsCbhiJeQeIRHFIdmuedZXaNNSKqNhwXH43axM/6DFq406cYZGYcYwffWWyu4jabBHV9uWQk5jNHiRXb2NK+eVZXXoHtK/4WRMR9XZZ1TLikYx3WV4Lesd4qPIdSpsk+EADPnEpv2ueeG+L+a65d/mTe3QFafC8inf8s5pDMoW+BnzqgdnS4NNVCz7rSkMPDjIBTccayYOvVk8L5pCUdtwkulUk46fePxC+Dt2hIPkrNejmt5h6uNyqfOr+bzf4uZbDhFIT1s4iwpTb82ySSxy2QODSi6Nn0Q4Lo9NVU4/rkwI9xF5RedVeUUf1EHo9MRXbbY83IgzT6j26XiCR91R7ga5voXKTU8q90bKQqd9T7kmXPG9BZVqHmXJPuuE6SN0fclJjsalsA8qXG3/TVXsB8sN7KPjQLVLE2fpjM8ozczfFHFLkaAtQMr5IypLu7OkySpe7G2SclC3OQ02zJOUDbIOt392jNKudEx4nZT7ba4ai3IDhk7oUu+5qa4Cq0ce1N5Ygdb4xkIOy1hPuUwlM3egb32pUCfyja8ktsccuP2lFCT4Mh0pip1hy4Ob0RfTdLq9m16Y0N0GlMY2PCtdfcjbXXerrumt7acSPZl4XVroHTKYlSu8pzbKl72jaVDonpTODBnufzjuyk1//pz1/cds9tORoTONWWV3Uz1Cy20WbymI7PKkxj+mG9l8681wtya1y/7LFc5Su6UASvIz9uwp71x80oQx18uArJw29DigzeIviZAlClzrIxBm8lTlABeY9x6eYON48KnKn8XiC97l2hwo9vif9OEJPvp+iYs/bjKKnbz8jBPdHnkXRsryeaYSi+M2NNOl9zs4bEJbTa52io19PIkSvu5mIBkvfyeyuIlTFDm5QFIzURRFh2xzKmBQ+eTf/MDR0nLg2VZOtv10sozpW1/QkVU9aH25F9Xxd9zhVB/fWH1BVy/ltL0HhS7Cpu0ZUW+7iMPTPPuEdnuUQhfuzqUwq1GyZOLtHVHJ3O8ywKAyWwQZW7hGlxtMjzjhVirPUbvsGIjf2TbI7J+No7tT5JqpEvis6xzSTymFqbG74dBQxmm5fm9BZ2qJSOGmmT6y1TyN2LR/n/Q5z045NcraZZOyt//yjBTWieXXyYGjfYK7gByDaDjdcltwfOjh9bUZtabpvy98cL80ZzHW1JP+rgt0yeVJ3XZacG+w5yG+1NKFWNdy3tl1e3A737kz8Hrw1sXPcfd7R3tbaUkS4/gMTifQzN25fogAAAABJRU5ErkJggg==;" vertex="1" parent="1">
          <mxGeometry x="1191.2" y="310" width="74.8" height="120" as="geometry" />
        </mxCell>
        <mxCell id="IOINTAL6Y3XgF2sGTh_A-42" value="" style="rounded=0;whiteSpace=wrap;html=1;fontFamily=Helvetica;fontSize=11;fontColor=default;fillColor=none;" vertex="1" parent="1">
          <mxGeometry x="-60" y="-70" width="1150" height="630" as="geometry" />
        </mxCell>
        <mxCell id="IOINTAL6Y3XgF2sGTh_A-49" value="&lt;b&gt;AWS CLOUD&lt;/b&gt;" style="rounded=0;whiteSpace=wrap;html=1;fontFamily=Helvetica;fontSize=11;fillColor=none;" vertex="1" parent="1">
          <mxGeometry x="-60" y="-70" width="50" height="30" as="geometry" />
        </mxCell>
        <mxCell id="IOINTAL6Y3XgF2sGTh_A-50" value="" style="rounded=0;whiteSpace=wrap;html=1;fontFamily=Helvetica;fontSize=11;fontColor=default;fillColor=none;" vertex="1" parent="1">
          <mxGeometry x="1150" y="110" width="150" height="370" as="geometry" />
        </mxCell>
        <mxCell id="IOINTAL6Y3XgF2sGTh_A-51" value="&lt;b&gt;&lt;font style=&quot;font-size: 13px;&quot;&gt;GCP&lt;/font&gt;&lt;/b&gt;" style="rounded=0;whiteSpace=wrap;html=1;fontFamily=Helvetica;fontSize=11;fillColor=none;" vertex="1" parent="1">
          <mxGeometry x="1250" y="110" width="50" height="30" as="geometry" />
        </mxCell>
      </root>
    </mxGraphModel>
  </diagram>
</mxfile>
